<?xml version="1.0" encoding="UTF-8" standalone="no"?>
<!DOCTYPE svg PUBLIC "-//W3C//DTD SVG 1.1//EN" "http://www.w3.org/Graphics/SVG/1.1/DTD/svg11.dtd">
<svg width="100%" height="100%" viewBox="0 0 2481 3508" version="1.1" xmlns="http://www.w3.org/2000/svg" xmlns:xlink="http://www.w3.org/1999/xlink" xml:space="preserve" xmlns:serif="http://www.serif.com/" style="fill-rule:evenodd;clip-rule:evenodd;stroke-linejoin:round;stroke-miterlimit:2;">
    <g transform="matrix(0.676808,0,0,10.6534,83.5093,-11550.8)">
        <rect x="500.947" y="1084.24" width="1208.03" height="324.179" style="fill:rgb(43,87,154);"/>
    </g>
    <g transform="matrix(1.59489,0,0,1.59489,-597.955,701.142)">
        <g transform="matrix(0.899173,0,0,0.899173,189.424,493.419)">
            <rect x="500.947" y="1084.24" width="1208.03" height="324.179" style="fill:rgb(79,179,217);"/>
        </g>
        <g transform="matrix(0.428774,0,0,0.427961,697.058,1716.3)">
            <text x="0px" y="0px" style="font-family:'Gulim', sans-serif;font-size:667px;fill:rgb(45,62,80);">S</text>
            <text x="422.086px" y="0px" style="font-family:'Gulim', sans-serif;font-size:667px;fill:rgb(237,247,251);">PA</text>
            <text x="1277.33px" y="0px" style="font-family:'Gulim', sans-serif;font-size:667px;fill:rgb(45,62,80);">W</text>
            <text x="1873.98px" y="0px" style="font-family:'Gulim', sans-serif;font-size:667px;fill:rgb(237,247,251);">N</text>
        </g>
    </g>
    <g transform="matrix(1.59489,0,0,1.59489,-597.955,193.98)">
        <g transform="matrix(0.899173,0,0,0.899173,189.424,493.419)">
            <rect x="500.947" y="1084.24" width="1208.03" height="324.179" style="fill:rgb(45,62,80);"/>
        </g>
        <g transform="matrix(0.428774,0,0,0.427961,697.058,1716.3)">
            <text x="0px" y="0px" style="font-family:'Gulim', sans-serif;font-size:667px;fill:rgb(79,179,217);">S</text>
            <text x="422.086px" y="0px" style="font-family:'Gulim', sans-serif;font-size:667px;fill:rgb(237,247,251);">PA</text>
            <text x="1277.33px" y="0px" style="font-family:'Gulim', sans-serif;font-size:667px;fill:rgb(79,179,217);">W</text>
            <text x="1873.98px" y="0px" style="font-family:'Gulim', sans-serif;font-size:667px;fill:rgb(237,247,251);">N</text>
        </g>
    </g>
    <g transform="matrix(1.59489,0,0,1.59489,-597.955,-313.183)">
        <g transform="matrix(0.899173,0,0,0.899173,189.424,493.419)">
            <rect x="500.947" y="1084.24" width="1208.03" height="324.179"/>
        </g>
        <g transform="matrix(0.428774,0,0,0.427961,697.058,1716.3)">
            <text x="0px" y="0px" style="font-family:'Gulim', sans-serif;font-size:667px;fill:rgb(185,225,240);">S</text>
            <text x="422.086px" y="0px" style="font-family:'Gulim', sans-serif;font-size:667px;fill:rgb(237,247,251);">PA</text>
            <text x="1277.33px" y="0px" style="font-family:'Gulim', sans-serif;font-size:667px;fill:rgb(185,225,240);">W</text>
            <text x="1873.98px" y="0px" style="font-family:'Gulim', sans-serif;font-size:667px;fill:rgb(237,247,251);">N</text>
        </g>
    </g>
    <g transform="matrix(1.59489,0,0,1.59489,-597.955,-1327.51)">
        <g transform="matrix(0.899173,0,0,0.899173,189.424,493.419)">
            <rect x="500.947" y="1084.24" width="1208.03" height="324.179" style="fill:white;"/>
        </g>
        <g transform="matrix(0.428774,0,0,0.427961,697.058,1716.3)">
            <text x="0px" y="0px" style="font-family:'Gulim', sans-serif;font-size:667px;fill:rgb(79,179,217);">S</text>
            <text x="422.086px" y="0px" style="font-family:'Gulim', sans-serif;font-size:667px;fill:rgb(45,62,80);">PA</text>
            <text x="1277.33px" y="0px" style="font-family:'Gulim', sans-serif;font-size:667px;fill:rgb(79,179,217);">W</text>
            <text x="1873.98px" y="0px" style="font-family:'Gulim', sans-serif;font-size:667px;fill:rgb(45,62,80);">N</text>
        </g>
    </g>
    <g transform="matrix(1.59489,0,0,1.59489,-597.955,-820.345)">
        <g transform="matrix(0.428774,0,0,0.427961,697.058,1716.3)">
            <text x="0px" y="0px" style="font-family:'Gulim', sans-serif;font-size:667px;fill:rgb(79,179,217);">S</text>
            <text x="422.086px" y="0px" style="font-family:'Gulim', sans-serif;font-size:667px;fill:rgb(45,62,80);">PA</text>
            <text x="1277.33px" y="0px" style="font-family:'Gulim', sans-serif;font-size:667px;fill:rgb(79,179,217);">W</text>
            <text x="1873.98px" y="0px" style="font-family:'Gulim', sans-serif;font-size:667px;fill:rgb(45,62,80);">N</text>
        </g>
        <g transform="matrix(0.899173,0,0,0.899173,189.424,493.419)">
            <rect x="500.947" y="1084.24" width="1208.03" height="324.179" style="fill:none;"/>
        </g>
    </g>
    <g transform="matrix(1.59489,0,0,1.59489,-597.955,-1834.67)">
        <g transform="matrix(0.899173,0,0,0.899173,189.424,493.419)">
            <rect x="500.947" y="1084.24" width="1208.03" height="324.179" style="fill:none;"/>
        </g>
        <g transform="matrix(0.428774,0,0,0.427961,697.058,1716.3)">
            <text x="0px" y="0px" style="font-family:'Gulim', sans-serif;font-size:667px;fill:rgb(143,225,211);">S</text>
            <text x="422.086px" y="0px" style="font-family:'Gulim', sans-serif;font-size:667px;fill:rgb(234,236,238);">PA</text>
            <text x="1277.33px" y="0px" style="font-family:'Gulim', sans-serif;font-size:667px;fill:rgb(143,225,211);">W</text>
            <text x="1873.98px" y="0px" style="font-family:'Gulim', sans-serif;font-size:667px;fill:rgb(234,236,238);">N</text>
        </g>
    </g>
    <g transform="matrix(1.59489,0,0,1.59489,-597.955,-2341.83)">
        <g transform="matrix(0.899173,0,0,0.899173,189.424,493.419)">
            <rect x="500.947" y="1084.24" width="1208.03" height="324.179" style="fill:none;"/>
        </g>
        <g transform="matrix(0.428774,0,0,0.427961,697.058,1716.3)">
            <text x="0px" y="0px" style="font-family:'Gulim', sans-serif;font-size:667px;fill:rgb(149,209,232);">S</text>
            <text x="422.086px" y="0px" style="font-family:'Gulim', sans-serif;font-size:667px;fill:rgb(234,236,238);">PA</text>
            <text x="1277.33px" y="0px" style="font-family:'Gulim', sans-serif;font-size:667px;fill:rgb(149,209,232);">W</text>
            <text x="1873.98px" y="0px" style="font-family:'Gulim', sans-serif;font-size:667px;fill:rgb(234,236,238);">N</text>
        </g>
    </g>
</svg>
