<?xml version="1.0" encoding="UTF-8" standalone="no"?>
<!DOCTYPE svg PUBLIC "-//W3C//DTD SVG 1.1//EN" "http://www.w3.org/Graphics/SVG/1.1/DTD/svg11.dtd">
<svg width="100%" height="100%" viewBox="0 0 1733 465" version="1.1" xmlns="http://www.w3.org/2000/svg" xmlns:xlink="http://www.w3.org/1999/xlink" xml:space="preserve" xmlns:serif="http://www.serif.com/" style="fill-rule:evenodd;clip-rule:evenodd;stroke-linejoin:round;stroke-miterlimit:2;">
    <g transform="matrix(1,0,0,1,-422.554,-104.546)">
        <g transform="matrix(1.59489,0,0,1.59489,-597.955,-2237.29)">
            <g transform="matrix(0.899173,0,0,0.899173,189.424,493.419)">
                <rect x="500.947" y="1084.24" width="1208.03" height="324.179" style="fill:none;"/>
            </g>
            <g transform="matrix(0.428774,0,0,0.427961,697.058,1716.3)">
                <g transform="matrix(667,0,0,667,0,0)">
                    <path d="M0.317,-0.734C0.241,-0.734 0.181,-0.719 0.138,-0.688C0.095,-0.656 0.073,-0.611 0.073,-0.555C0.073,-0.496 0.094,-0.451 0.137,-0.418C0.173,-0.391 0.23,-0.368 0.311,-0.35C0.394,-0.331 0.45,-0.308 0.478,-0.28C0.501,-0.257 0.513,-0.222 0.513,-0.174C0.513,-0.13 0.49,-0.095 0.445,-0.069C0.408,-0.048 0.366,-0.037 0.319,-0.037C0.257,-0.037 0.21,-0.049 0.178,-0.074C0.142,-0.101 0.122,-0.144 0.117,-0.202C0.116,-0.213 0.112,-0.222 0.105,-0.228C0.1,-0.233 0.092,-0.235 0.084,-0.234C0.076,-0.234 0.07,-0.231 0.064,-0.226C0.058,-0.219 0.055,-0.211 0.057,-0.2C0.063,-0.125 0.09,-0.069 0.137,-0.033C0.18,0.001 0.241,0.018 0.321,0.018C0.392,0.018 0.451,0 0.498,-0.034C0.549,-0.071 0.574,-0.119 0.574,-0.181C0.574,-0.243 0.556,-0.291 0.519,-0.325C0.48,-0.36 0.414,-0.387 0.321,-0.406C0.25,-0.421 0.201,-0.439 0.174,-0.463C0.148,-0.485 0.135,-0.516 0.135,-0.557C0.135,-0.597 0.151,-0.628 0.185,-0.649C0.216,-0.67 0.259,-0.68 0.313,-0.68C0.364,-0.68 0.404,-0.669 0.432,-0.648C0.46,-0.627 0.478,-0.593 0.485,-0.547C0.487,-0.536 0.491,-0.529 0.498,-0.523C0.505,-0.518 0.513,-0.516 0.521,-0.517C0.531,-0.518 0.537,-0.522 0.542,-0.529C0.548,-0.537 0.55,-0.547 0.548,-0.56C0.54,-0.608 0.521,-0.646 0.491,-0.676C0.451,-0.715 0.393,-0.734 0.317,-0.734Z" style="fill:rgb(149,209,232);fill-rule:nonzero;"/>
                </g>
                <g transform="matrix(667,0,0,667,422.086,0)">
                    <path d="M0.381,-0.718L0.187,-0.718C0.157,-0.718 0.133,-0.708 0.116,-0.688C0.101,-0.671 0.094,-0.649 0.094,-0.623L0.094,-0.014C0.094,-0.004 0.097,0.004 0.103,0.01C0.108,0.015 0.116,0.018 0.124,0.018C0.132,0.018 0.139,0.015 0.145,0.01C0.151,0.004 0.154,-0.004 0.154,-0.014L0.154,-0.314L0.381,-0.314C0.444,-0.314 0.494,-0.336 0.531,-0.378C0.565,-0.416 0.582,-0.462 0.582,-0.516C0.582,-0.571 0.565,-0.618 0.531,-0.655C0.494,-0.697 0.444,-0.718 0.381,-0.718ZM0.373,-0.368L0.154,-0.368L0.154,-0.619C0.154,-0.632 0.158,-0.642 0.164,-0.649C0.172,-0.659 0.183,-0.663 0.197,-0.663L0.373,-0.663C0.419,-0.663 0.456,-0.648 0.483,-0.617C0.508,-0.589 0.521,-0.555 0.521,-0.515C0.521,-0.476 0.508,-0.442 0.483,-0.414C0.456,-0.383 0.419,-0.368 0.373,-0.368Z" style="fill:rgb(234,236,238);fill-rule:nonzero;"/>
                </g>
                <g transform="matrix(667,0,0,667,846.777,0)">
                    <path d="M0.186,-0.288L0.321,-0.659L0.324,-0.659L0.459,-0.288L0.186,-0.288ZM0.267,-0.688L0.025,-0.026C0.021,-0.016 0.021,-0.007 0.024,0.001C0.028,0.009 0.034,0.014 0.042,0.017C0.05,0.019 0.057,0.019 0.064,0.015C0.073,0.01 0.079,0.003 0.083,-0.007L0.166,-0.234L0.479,-0.234L0.562,-0.007C0.565,0.003 0.571,0.01 0.579,0.015C0.587,0.018 0.595,0.018 0.603,0.016C0.61,0.013 0.616,0.008 0.619,0.001C0.623,-0.007 0.623,-0.017 0.62,-0.026L0.378,-0.688C0.373,-0.703 0.365,-0.715 0.354,-0.723C0.345,-0.73 0.334,-0.733 0.323,-0.733C0.311,-0.733 0.3,-0.73 0.29,-0.723C0.28,-0.715 0.272,-0.703 0.267,-0.688Z" style="fill:rgb(234,236,238);fill-rule:nonzero;"/>
                </g>
                <g transform="matrix(667,0,0,667,1277.33,0)">
                    <path d="M0.025,-0.693L0.213,-0.017C0.219,0.006 0.231,0.017 0.25,0.018C0.269,0.018 0.282,0.006 0.29,-0.017L0.449,-0.627L0.609,-0.018C0.615,0.006 0.628,0.018 0.646,0.018C0.666,0.018 0.679,0.006 0.685,-0.018L0.872,-0.693C0.874,-0.704 0.873,-0.713 0.868,-0.721C0.864,-0.727 0.857,-0.731 0.849,-0.733C0.84,-0.735 0.833,-0.734 0.826,-0.73C0.818,-0.726 0.813,-0.718 0.811,-0.708L0.645,-0.117L0.493,-0.702C0.487,-0.724 0.472,-0.734 0.448,-0.734C0.425,-0.734 0.41,-0.724 0.404,-0.702L0.253,-0.117L0.085,-0.711C0.082,-0.72 0.077,-0.727 0.07,-0.73C0.063,-0.734 0.056,-0.735 0.048,-0.733C0.039,-0.732 0.033,-0.728 0.028,-0.722C0.024,-0.714 0.023,-0.704 0.025,-0.693Z" style="fill:rgb(149,209,232);fill-rule:nonzero;"/>
                </g>
                <g transform="matrix(667,0,0,667,1873.98,0)">
                    <path d="M0.094,-0.695L0.094,-0.017C0.094,-0.006 0.097,0.002 0.103,0.009C0.108,0.015 0.116,0.018 0.124,0.019C0.132,0.019 0.14,0.016 0.146,0.01C0.152,0.003 0.155,-0.006 0.155,-0.017L0.155,-0.623L0.486,-0.077L0.541,0.003C0.549,0.017 0.562,0.021 0.579,0.016C0.597,0.011 0.605,-0.002 0.605,-0.024L0.605,-0.708C0.605,-0.716 0.602,-0.723 0.596,-0.728C0.59,-0.732 0.583,-0.734 0.574,-0.734C0.566,-0.734 0.559,-0.732 0.553,-0.729C0.547,-0.723 0.544,-0.716 0.544,-0.708L0.544,-0.095L0.201,-0.665L0.168,-0.714C0.158,-0.73 0.143,-0.737 0.123,-0.734C0.104,-0.731 0.094,-0.718 0.094,-0.695Z" style="fill:rgb(234,236,238);fill-rule:nonzero;"/>
                </g>
            </g>
        </g>
    </g>
</svg>
